# xmcd CD database file
#
# Track frame offsets:
#	157
#	31420
#	54762
#	86047
#	117070
#	148267
#
# Disc length: 2356 seconds
#
# Revision: 0
# Processed by: cddbd v1.5.1PL0 Copyright (c) Steve Scherf et al.
# Submitted via: CDex 1.51
#
DISCID=49093206
DTITLE=Art Farmer Quintet - Manhattan
DYEAR=1900
DGENRE=Jazz
TTITLE0=Context
TTITLE1=Blue Wail
TTITLE2=Manhattan
TTITLE3=Passport
TTITLE4=Arrival
TTITLE5=Back Door Beauty
EXTD=
EXTT0=
EXTT1=
EXTT2=
EXTT3=
EXTT4=
EXTT5=
PLAYORDER=
